<svg width="24" height="24" viewBox="0 0 24 24" fill="none" xmlns="http://www.w3.org/2000/svg">
<path d="M0 8.74746H15.7476C16.9592 8.74746 17.9414 9.7079 17.9414 10.8927V12.3259C17.9414 13.5107 16.9592 14.4711 15.7476 14.4711H2.19382C0.982207 14.4711 0 13.5107 0 12.3259V8.74746Z" fill="white"/>
<path d="M23.7603 2H4.56991C3.35829 2 2.37608 2.96162 2.37608 4.14638C2.37608 5.33113 3.35829 6.29275 4.56991 6.29275H21.5665C22.7781 6.29275 23.7603 5.33232 23.7603 4.14757V2Z" fill="white"/>
<path d="M24 16.7072H4.80962C3.598 16.7072 2.61579 17.6689 2.61579 18.8536C2.61579 20.0384 3.598 21 4.80962 21H21.8062C23.0178 21 24 20.0396 24 18.8548V16.7072Z" fill="white"/>
</svg>
