<svg width="866" height="162" viewBox="0 0 866 162" fill="none" xmlns="http://www.w3.org/2000/svg">
<path d="M0 57.2162H130.574C140.62 57.2162 148.764 65.3603 148.764 75.4066V87.5605C148.764 97.6068 140.62 105.751 130.574 105.751H18.1904C8.14413 105.751 0 97.6068 0 87.5605V57.2162Z" fill="#645DFF"/>
<path d="M197.012 0H37.8922C27.8459 0 19.7017 8.15423 19.7017 18.2005C19.7017 28.2468 27.8458 36.4011 37.8921 36.4011H178.822C188.868 36.4011 197.012 28.2569 197.012 18.2106V0Z" fill="#645DFF"/>
<path d="M199 124.712H39.8798C29.8335 124.712 21.6893 132.867 21.6893 142.913C21.6893 152.959 29.8334 161.113 39.8797 161.113H180.81C190.856 161.113 199 152.969 199 142.923V124.712Z" fill="#645DFF"/>
<path fill-rule="evenodd" clip-rule="evenodd" d="M668.733 47.9675C676.662 47.9675 681.041 44.0639 681.041 37.203C681.041 30.4604 676.662 26.5567 668.733 26.5567C660.922 26.5567 656.544 30.4604 656.544 37.203C656.544 44.0639 660.922 47.9675 668.733 47.9675ZM515.997 115.039C518.127 115.039 520.613 114.92 522.625 114.329C526.056 113.501 527.358 112.081 527.358 108.888V102.855C527.358 99.8974 526.411 98.7145 523.808 98.7145C523.555 98.7145 523.324 98.736 523.059 98.7607C522.704 98.7939 522.288 98.8327 521.678 98.8327C518.246 98.8327 516.707 97.0584 516.707 92.7999V31.7615C516.707 28.3311 515.406 26.9116 511.974 26.9116H502.151C498.838 26.9116 497.417 28.3311 497.417 31.7615V94.8108C497.417 109.361 502.625 115.039 515.997 115.039ZM329.398 109.124C329.398 112.555 328.097 113.974 324.665 113.974H314.842C311.529 113.974 310.108 112.555 310.108 109.124V53.054C310.108 49.7418 311.529 48.3223 314.842 48.3223H322.416C325.966 48.3223 327.268 49.6235 327.268 52.9357V53.882C332.12 49.6235 339.576 46.9028 346.913 46.9028C355.197 46.9028 360.759 49.6235 364.428 54.9466C370.819 49.6235 378.392 46.9028 386.44 46.9028C401.706 46.9028 409.043 56.0113 409.043 74.7013V109.124C409.043 112.555 407.742 113.974 404.31 113.974H394.487C391.174 113.974 389.635 112.555 389.635 109.124V77.0671C389.635 67.2489 387.032 63.3453 380.641 63.3453C377.091 63.3453 372.949 64.8831 368.688 67.8404C369.043 70.2062 369.28 72.8086 369.28 75.411V109.124C369.28 112.555 367.86 113.974 364.428 113.974H354.605C351.292 113.974 349.872 112.555 349.872 109.124V77.0671C349.872 67.2489 347.268 63.3453 340.759 63.3453C337.091 63.3453 332.712 64.8831 329.398 67.7221V109.124ZM272.018 115.275C279.118 115.275 287.402 113.856 292.373 111.845C295.686 110.544 297.107 108.414 297.107 105.339V98.8328C297.107 95.284 294.503 94.456 290.598 96.1121C285.627 98.123 279.828 99.1876 274.503 99.1876C264.325 99.1876 259.828 95.5206 258.882 87.3585L276.633 86.1756C291.663 85.111 299 79.1964 299 67.7221C299 54.9467 288.467 46.9028 271.663 46.9028C250.479 46.9028 239 59.0869 239 81.5622C239 104.629 249.533 115.275 272.018 115.275ZM258.762 75.6474C259.235 66.3024 263.614 61.2159 271.306 61.2159C277.223 61.2159 280.774 63.7 280.774 67.9585C280.774 72.3353 277.223 74.2279 269.531 74.8194L258.762 75.6474ZM437.667 134.557C441.099 134.557 442.401 133.137 442.401 129.707V112.909C445.833 114.211 450.211 115.275 454.708 115.275C474.235 115.275 485.004 102.5 485.004 79.5512C485.004 58.8503 475.418 46.9028 458.614 46.9028C450.803 46.9028 443.939 49.9784 440.271 54.0003V53.054C440.271 49.7418 438.85 48.3223 435.418 48.3223H427.844C424.531 48.3223 423.111 49.7418 423.111 53.054V129.707C423.111 133.137 424.531 134.557 427.844 134.557H437.667ZM442.403 96.3486C445.006 98.0047 447.965 98.9511 451.515 98.9511C460.864 98.9511 465.361 92.6816 465.361 79.9062C465.361 68.6685 461.811 63.2271 454 63.2271C449.858 63.2271 445.243 64.7649 442.403 67.3673V96.3486ZM597.756 81.089C597.756 104.038 587.105 115.275 565.567 115.275C544.147 115.275 533.496 104.038 533.496 81.089C533.496 58.2588 544.147 46.9028 565.567 46.9028C587.105 46.9028 597.756 58.2588 597.756 81.089ZM565.568 98.9511C556.811 98.9511 553.142 93.7462 553.142 81.0891C553.142 68.4319 556.811 63.2271 565.568 63.2271C574.444 63.2271 577.994 68.4319 577.994 81.0891C577.994 93.7462 574.444 98.9511 565.568 98.9511ZM629.339 109.124C629.339 112.555 628.037 113.974 624.605 113.974H614.783C611.469 113.974 610.049 112.555 610.049 109.124V53.054C610.049 49.7419 611.469 48.3224 614.783 48.3224H622.475C625.788 48.3224 627.209 49.6236 627.209 53.054V56.4845C631.114 51.6345 639.871 47.1395 645.552 47.1395C649.102 47.1395 650.522 48.559 650.522 51.9894V62.8722C650.522 66.3027 648.984 67.7222 645.67 67.7222C640.108 67.7222 633.599 67.0124 629.339 66.421V109.124ZM678.438 109.124C678.438 112.555 677.136 113.974 673.704 113.974H663.882C660.568 113.974 659.148 112.555 659.148 109.124V58.1405C659.148 55.3015 660.805 54.0003 663.764 54.4735C665.657 54.8284 667.077 54.9467 668.734 54.9467C670.509 54.9467 671.929 54.8284 673.823 54.4735C676.781 54.0003 678.438 55.3015 678.438 58.1405V109.124ZM714.991 115.275C721.974 115.275 729.548 112.791 734.518 108.296V109.361C734.518 112.673 735.938 113.974 739.252 113.974H746.944C750.258 113.974 751.678 112.555 751.678 109.124V53.054C751.678 49.7418 750.258 48.3224 746.944 48.3224H737.122C733.808 48.3224 732.27 49.7418 732.27 53.054V94.6926C729.193 97.295 724.814 98.8328 721.145 98.8328C714.636 98.8328 711.796 95.1657 711.796 85.939V53.054C711.796 49.7418 710.494 48.3224 707.062 48.3224H697.24C693.926 48.3224 692.506 49.7418 692.506 53.054V87.4768C692.506 106.285 699.843 115.275 714.991 115.275ZM785.626 109.124C785.626 112.555 784.324 113.974 780.892 113.974H771.07C767.756 113.974 766.336 112.555 766.336 109.124V53.054C766.336 49.7418 767.756 48.3223 771.07 48.3223H778.644C782.194 48.3223 783.496 49.6235 783.496 52.9357V53.882C788.348 49.6235 795.803 46.9028 803.141 46.9028C811.425 46.9028 816.987 49.6235 820.656 54.9466C827.046 49.6235 834.62 46.9028 842.667 46.9028C857.934 46.9028 865.271 56.0113 865.271 74.7013V109.124C865.271 112.555 863.969 113.974 860.537 113.974H850.715C847.401 113.974 845.863 112.555 845.863 109.124V77.0671C845.863 67.2489 843.259 63.3453 836.869 63.3453C833.318 63.3453 829.176 64.8831 824.916 67.8404C825.271 70.2062 825.508 72.8086 825.508 75.411V109.124C825.508 112.555 824.087 113.974 820.656 113.974H810.833C807.519 113.974 806.099 112.555 806.099 109.124V77.0671C806.099 67.2489 803.496 63.3453 796.987 63.3453C793.318 63.3453 788.94 64.8831 785.626 67.7221V109.124Z" fill="#242628"/>
</svg>
